<?xml version="1.0" encoding="utf-8"?>
<!-- Generator: Adobe Illustrator 23.0.3, SVG Export Plug-In . SVG Version: 6.00 Build 0)  -->
<svg version="1.1" id="Layer_1" xmlns="http://www.w3.org/2000/svg" xmlns:xlink="http://www.w3.org/1999/xlink" x="0px" y="0px"
	 viewBox="0 0 512 512" style="enable-background:new 0 0 512 512;" xml:space="preserve">
<style type="text/css">
	.st0{fill:#B59961;}
	.st1{fill:#F2D28B;}
	.st2{fill:#E2E2E2;stroke:#000000;stroke-width:8;stroke-linecap:round;stroke-linejoin:round;stroke-miterlimit:10;}
	.st3{fill:#E2E2E2;stroke:#000000;stroke-width:7;stroke-linecap:round;stroke-linejoin:round;stroke-miterlimit:10;}
</style>
<g>
	<path class="st0" d="M157.2,374.4c-2.8,0-5-2.2-5-5V131.6c0-2.8,2.2-5,5-5h186.6c0.1,0,0.2,0,0.2,0c0.1,0,0.3,0,0.4,0
		c27,0,52.5,7,71.7,19.6c19.9,13,30.8,30.6,30.8,49.5c0,11.1-3.9,20.2-11.6,27v146.8c0,2.8-2.2,5-5,5H157.2z"/>
	<path class="st0" d="M344.4,131.6c53.9,0,97.6,28.7,97.6,64c0,11-4.2,18.9-11.6,24.7v149.1h-86.6h-85.4H157.2V131.6h186.6v0
		C344,131.6,344.2,131.6,344.4,131.6 M344.4,121.6c-0.1,0-0.2,0-0.3,0c-0.1,0-0.2,0-0.3,0H157.2c-5.5,0-10,4.5-10,10v237.9
		c0,5.5,4.5,10,10,10h101.2h85.4h86.6c5.5,0,10-4.5,10-10V224.8c7.7-7.6,11.6-17.4,11.6-29.2c0-20.6-11.8-39.6-33.1-53.6
		C398.9,128.8,372.4,121.6,344.4,121.6L344.4,121.6z"/>
</g>
<g>
	<path class="st1" d="M70.6,374.4c-2.8,0-5-2.2-5-5V222.7c-7.7-6.9-11.6-15.9-11.6-27c0-18.8,11-36.4,30.8-49.5
		c19.2-12.6,44.7-19.6,71.7-19.6s52.5,7,71.7,19.6c19.9,13.1,30.8,30.6,30.8,49.5c0,11.1-3.9,20.2-11.6,27v146.8c0,2.8-2.2,5-5,5
		H70.6z"/>
	<path class="st0" d="M156.6,131.6c53.9,0,97.6,28.7,97.6,64c0,11-4.2,18.9-11.6,24.7v149.1h-172V220.3
		c-7.4-5.8-11.6-13.8-11.6-24.7C59,160.2,102.7,131.6,156.6,131.6 M156.6,121.6c-28,0-54.4,7.2-74.5,20.4C60.8,156,49,175,49,195.6
		c0,11.8,3.9,21.6,11.6,29.2v144.6c0,5.5,4.5,10,10,10h172c5.5,0,10-4.5,10-10V224.8c7.7-7.6,11.6-17.4,11.6-29.2
		c0-20.6-11.8-39.6-33.1-53.6C211,128.8,184.6,121.6,156.6,121.6L156.6,121.6z"/>
</g>
<g>
	<path class="st0" d="M766,353c-2.8,0-5-2.2-5-5V153c0-2.8,2.2-5,5-5h153c0.1,0,0.1,0,0.2,0l0.3,0c22.3,0,43.4,5.8,59.3,16.2
		c16.6,10.9,25.7,25.5,25.7,41.3c0,9.2-3.2,16.8-9.5,22.6V348c0,2.8-2.2,5-5,5H766z"/>
	<path class="st0" d="M919.5,153c44.2,0,80,23.5,80,52.5c0,9-3.4,15.5-9.5,20.3V348h-71h-70h-83V153h153v0
		C919.2,153,919.3,153,919.5,153 M919.5,143c-0.1,0-0.2,0-0.3,0c-0.1,0-0.1,0-0.2,0H766c-5.5,0-10,4.5-10,10v195c0,5.5,4.5,10,10,10
		h83h70h71c5.5,0,10-4.5,10-10V230.2c6.3-6.5,9.5-14.8,9.5-24.7c0-17.5-9.9-33.7-27.9-45.5C964.8,149,942.8,143,919.5,143L919.5,143
		z"/>
</g>
<g>
	<path class="st1" d="M695,353c-2.8,0-5-2.2-5-5V228.1c-6.3-5.8-9.5-13.3-9.5-22.6c0-15.8,9.1-30.4,25.7-41.3
		c15.9-10.4,37-16.2,59.3-16.2s43.4,5.8,59.3,16.2c16.6,10.9,25.7,25.5,25.7,41.3c0,9.2-3.2,16.8-9.5,22.6V348c0,2.8-2.2,5-5,5H695z
		"/>
	<path class="st0" d="M765.5,153c44.2,0,80,23.5,80,52.5c0,9-3.4,15.5-9.5,20.3V348H695V225.8c-6.1-4.7-9.5-11.3-9.5-20.3
		C685.5,176.5,721.3,153,765.5,153 M765.5,143c-23.3,0-45.3,6-62.1,17c-18,11.8-27.9,28-27.9,45.5c0,9.9,3.2,18.2,9.5,24.7V348
		c0,5.5,4.5,10,10,10h141c5.5,0,10-4.5,10-10V230.2c6.3-6.5,9.5-14.8,9.5-24.7c0-17.5-9.9-33.7-27.9-45.5
		C810.8,149,788.8,143,765.5,143L765.5,143z"/>
</g>
<path class="st2" d="M1055,328.8c0,0-133.8,9.4-142.1,9.4s3.8-61.9-27.9-61c-31.8,0.9-24.2,54.7-22.8,56.4s-87.3-42.7-142.1-2.9
	c0,0-40.7,54.8-6.6,83.2c34.1,28.5,84.5,28,119.4,23.2s51-30.6,82.5-32.4c31.5-1.9,112.8,4.1,133.6-15.6"/>
<path class="st3" d="M716,336.1c0,0,85,23.9,111,23.9"/>
<path class="st3" d="M707.1,356.4c0,0,53.9,29.6,113.9,37.6"/>
<path class="st3" d="M699.8,382.4c0,0,68.2,39.6,99.2,35.6"/>
</svg>
